<svg xmlns="http://www.w3.org/2000/svg" width="577" height="289" viewBox="0 0 577 289" version="1.1"><path d="M 103 181.500 C 103 183.746, 103.403 184, 106.960 184 L 110.919 184 111.210 192.250 L 111.500 200.500 114.750 200.813 L 118 201.127 118 192.563 L 118 184 122 184 C 125.600 184, 126 183.750, 126 181.500 L 126 179 114.500 179 L 103 179 103 181.500 M 150.923 181.923 C 144.966 187.880, 148.337 199.035, 156.560 200.577 C 167.009 202.538, 174.242 195.734, 171.786 186.255 C 170.495 181.271, 166.738 179, 159.788 179 C 154.554 179, 153.498 179.348, 150.923 181.923 M 198 190 L 198 201 204.435 201 C 212.322 201, 215.670 199.817, 217.183 196.497 C 218.161 194.351, 218.017 193.514, 216.261 191.140 C 214.863 189.249, 214.474 187.862, 215.075 186.913 C 216.428 184.775, 216.178 182.321, 214.429 180.571 C 213.282 179.425, 210.848 179, 205.429 179 L 198 179 198 190 M 243 190.063 L 243 201.127 246.250 200.813 L 249.500 200.500 249.784 189.750 L 250.068 179 246.534 179 L 243 179 243 190.063 M 279.170 188.349 C 273.138 202.047, 273.325 201, 276.914 201 C 279.281 201, 280.320 200.391, 281.182 198.500 C 282.161 196.352, 282.980 196, 287 196 C 291.020 196, 291.839 196.352, 292.818 198.500 C 293.667 200.364, 294.726 201, 296.979 201 C 298.640 201, 300 200.784, 300 200.520 C 300 200.256, 297.927 195.306, 295.393 189.520 L 290.786 179 287.036 179 L 283.286 179 279.170 188.349 M 325.612 180.294 C 324.373 181.200, 323.941 182.615, 324.171 185.014 C 324.435 187.762, 325.340 189.002, 328.750 191.286 C 331.087 192.851, 333 194.552, 333 195.066 C 333 196.321, 328.344 196.254, 325.934 194.965 C 324.223 194.049, 324 194.273, 324 196.904 C 324 199.669, 324.321 199.926, 328.578 200.564 C 334.022 201.380, 337.571 200.036, 339.157 196.556 C 340.621 193.342, 338.310 189.592, 333.432 187.266 C 331.524 186.356, 330.128 185.137, 330.329 184.556 C 330.742 183.364, 334.608 183.308, 337.250 184.454 C 338.653 185.063, 339 184.718, 339 182.714 C 339 181.339, 338.288 179.941, 337.418 179.607 C 334.633 178.538, 327.441 178.957, 325.612 180.294 M 366 181 C 362.641 184.359, 363.907 187.654, 370.043 191.527 C 372.219 192.901, 374 194.469, 374 195.013 C 374 196.311, 369.392 196.280, 366.934 194.965 C 365.227 194.051, 365 194.273, 365 196.848 C 365 199.969, 366.750 200.959, 372.316 200.986 C 376.161 201.005, 378.911 199.365, 380.048 196.374 C 381.330 193.001, 379.934 190.653, 374.999 187.879 C 368.334 184.133, 370.979 181.356, 378.250 184.466 C 379.650 185.064, 380 184.713, 380 182.714 C 380 179.773, 378.422 179, 372.418 179 C 369.333 179, 367.396 179.604, 366 181 M 406 190.040 L 406 201.081 414.250 200.790 C 421.737 200.527, 422.500 200.315, 422.500 198.500 C 422.500 196.823, 421.732 196.451, 417.750 196.195 C 413.816 195.943, 413 195.556, 413 193.945 C 413 192.306, 413.709 192, 417.500 192 C 421.633 192, 422 191.796, 422 189.500 C 422 187.204, 421.633 187, 417.500 187 C 413.667 187, 413 186.704, 413 185 C 413 183.296, 413.667 183, 417.500 183 C 421.333 183, 422 182.704, 422 181 C 422 179.167, 421.333 179, 414 179 L 406 179 406 190.040 M 448 190 L 448 201 451.500 201 L 455 201 455 194.830 L 455 188.659 460.584 194.830 C 464.994 199.703, 466.781 201, 469.084 201 L 472 201 472 190 L 472 179 468.500 179 L 465 179 464.954 184.750 L 464.908 190.500 459.683 184.750 C 455.381 180.016, 453.887 179, 451.229 179 L 448 179 448 190 M 204.524 182.810 C 203.626 183.708, 203.951 186.851, 205.009 187.506 C 206.730 188.569, 210 186.960, 210 185.049 C 210 183.320, 205.750 181.583, 204.524 182.810 M 156 186 C 153.593 188.407, 153.499 189.840, 155.557 192.777 C 158.419 196.864, 166 194.609, 166 189.671 C 166 187.374, 162.430 184, 160 184 C 158.900 184, 157.100 184.900, 156 186 M 285.647 188 C 284.173 191.450, 284.188 191.505, 286.667 191.825 C 290.064 192.264, 290.265 191.854, 288.586 187.901 L 287.142 184.500 285.647 188 M 204.667 191.667 C 204.300 192.033, 204 193.383, 204 194.667 C 204 196.598, 204.522 197, 207.031 197 C 210.760 197, 212.165 194.325, 209.471 192.355 C 207.448 190.876, 205.707 190.627, 204.667 191.667" stroke="none" fill="#ffffff" fill-rule="evenodd"/><path d="M 226 69.753 C 222.425 70.721, 217.288 72.810, 214.585 74.396 C 190.970 88.244, 186.387 121.391, 205.350 141.182 C 210.778 146.847, 222.564 152.762, 231.459 154.286 C 239.894 155.731, 255.783 153.226, 264.724 149.042 L 271 146.105 271.156 141.303 C 271.316 136.360, 271.051 131.718, 270.583 131.249 C 270.437 131.103, 266.983 132.523, 262.909 134.404 C 248.901 140.872, 237.624 141.330, 226.286 135.891 C 215.912 130.914, 210.925 122.613, 211.076 110.572 C 211.166 103.400, 212.384 99.710, 216.651 93.677 C 220.467 88.283, 229.746 83.414, 238 82.476 C 244.893 81.692, 255.896 83.900, 262.977 87.489 C 269.988 91.041, 271 90.479, 271 83.031 C 271 78.394, 270.551 76.551, 269.058 75.058 C 263.310 69.310, 238.794 66.290, 226 69.753 M 314.500 69.329 C 287.710 76.183, 273.949 104.549, 285.341 129.434 C 294.093 148.551, 319.802 159.348, 342.540 153.455 C 349.865 151.557, 360.659 145.292, 364.873 140.492 C 366.601 138.524, 369.470 134.120, 371.249 130.707 C 374.367 124.721, 374.483 124.072, 374.491 112.500 C 374.499 101.230, 374.326 100.165, 371.635 95 C 365.181 82.610, 357.417 75.301, 345.977 70.849 C 339.185 68.205, 322.113 67.381, 314.500 69.329 M 63 111 L 63 153 71.485 153 L 79.970 153 80.235 124.105 L 80.500 95.209 104.831 124.105 L 129.161 153 136.581 153 L 144 153 144 111 L 144 69 135.515 69 L 127.031 69 126.765 97.413 L 126.500 125.825 102.500 97.485 L 78.500 69.144 70.750 69.072 L 63 69 63 111 M 162 111 L 162 153 170 153 L 178 153 178 111 L 178 69 170 69 L 162 69 162 111 M 389 110.883 C 389 149.955, 389.118 152.793, 390.750 153.163 C 391.712 153.382, 404.538 153.390, 419.250 153.183 L 446 152.806 446 146.403 L 446 140 425.500 140 L 405 140 405 122.559 C 405 112.010, 405.395 104.874, 406 104.500 C 406.550 104.160, 407 100.534, 407 96.441 C 407 92.147, 406.577 89, 406 89 C 405.450 89, 405 87.002, 405 84.559 C 405 82.116, 405.450 79.840, 406 79.500 C 407.345 78.669, 407.265 74.675, 405.839 71.547 C 404.740 69.133, 404.270 69, 396.839 69 L 389 69 389 110.883 M 457 111 L 457 153 484.500 153 L 512 153 512 146.500 L 512 140 492.500 140 L 473 140 473 128.500 L 473 117 491 117 L 509 117 509 110.500 L 509 104 491 104 L 473 104 473 93 L 473 82 492 82 L 511 82 511 75.500 L 511 69 484 69 L 457 69 457 111 M 321.186 84.519 C 308.123 88.139, 300.023 98.534, 300.006 111.701 C 299.983 128.884, 310.581 139.367, 328 139.391 C 339.973 139.407, 348.684 134.409, 353.745 124.620 C 357.272 117.796, 357.579 105.876, 354.403 98.989 C 348.785 86.802, 334.851 80.732, 321.186 84.519 M 235.643 224.053 C 229.234 225.918, 226.447 232.097, 229.422 237.849 C 231.421 241.716, 233.773 243, 238.852 243 C 244.137 243, 246 242.185, 246 239.874 C 246 238.278, 245.545 238.082, 243.250 238.691 C 236.753 240.412, 232.750 238.395, 232.750 233.400 C 232.750 228.177, 238.153 225.858, 244.250 228.466 C 245.604 229.045, 246 228.731, 246 227.076 C 246 225.899, 245.438 224.764, 244.750 224.552 C 241.233 223.469, 238.218 223.303, 235.643 224.053 M 257.524 224.040 C 253.358 225.311, 251.049 228.729, 251.022 233.661 C 250.962 245.022, 268.811 246.569, 271.603 235.445 C 273.457 228.059, 265.493 221.608, 257.524 224.040 M 290.228 224.039 C 285.442 225.962, 286.134 231.680, 291.503 234.572 C 297.097 237.584, 294.688 241.047, 288.750 238.528 C 287.419 237.964, 287 238.265, 287 239.786 C 287 243.439, 295.427 244.395, 298.425 241.082 C 301.106 238.120, 300.014 234.910, 295.237 231.708 C 290.421 228.479, 290.596 226.510, 295.627 227.327 C 299.790 228.002, 300.398 225.482, 296.435 223.975 C 293.438 222.836, 293.219 222.838, 290.228 224.039 M 396.854 224.128 C 393.917 225.204, 392.610 228.403, 394.026 231.048 C 394.533 231.996, 396.535 233.708, 398.474 234.852 C 400.413 235.996, 402 237.412, 402 237.998 C 402 239.734, 399.053 240.345, 396.436 239.153 C 394.327 238.192, 394 238.294, 394 239.914 C 394 242.039, 395.872 243, 400.010 243 C 403.408 243, 406.006 240.686, 405.985 237.679 C 405.964 234.720, 405.065 233.568, 401.250 231.614 C 396.682 229.273, 396.840 226.550, 401.500 227.306 C 404.163 227.738, 405 227.525, 405 226.412 C 405 225.298, 400.742 222.627, 399.685 223.079 C 399.583 223.122, 398.309 223.594, 396.854 224.128 M 64 233.500 C 64 242.333, 64.140 243, 66 243 C 67.795 243, 68 242.333, 68 236.489 L 68 229.978 73.317 236.238 C 81.186 245.503, 82 245.253, 82 233.573 C 82 226.084, 81.698 224, 80.615 224 C 79.680 224, 78.997 225.865, 78.510 229.750 L 77.790 235.500 72.645 229.736 C 65.104 221.289, 64 221.770, 64 233.500 M 89 233.500 L 89 243 95.583 243 C 100.403 243, 102.057 242.665, 101.756 241.750 C 101.530 241.063, 99.467 240.362, 97.172 240.193 C 93.499 239.922, 93 239.593, 93 237.443 C 93 235.260, 93.425 235, 97 235 C 102.400 235, 102.615 232.254, 97.250 231.810 C 94.238 231.561, 93.437 231.057, 93.180 229.250 C 92.894 227.233, 93.282 227, 96.930 227 C 99.881 227, 101 226.588, 101 225.500 C 101 224.333, 99.667 224, 95 224 L 89 224 89 233.500 M 106.002 224.750 C 106.005 226.669, 112.717 242.406, 113.667 242.722 C 114.258 242.919, 115.989 240.144, 117.514 236.555 L 120.287 230.031 123.300 236.515 C 124.957 240.082, 126.598 243, 126.946 243 C 127.573 243, 135 226.159, 135 224.738 C 135 224.332, 134.160 224, 133.133 224 C 131.830 224, 130.596 225.585, 129.046 229.250 L 126.826 234.500 124.470 229.250 C 121.338 222.272, 119.043 222.199, 116.597 229 C 115.608 231.750, 114.440 234, 114 234 C 113.560 234, 112.392 231.750, 111.403 229 C 110.149 225.514, 109.059 224, 107.802 224 C 106.811 224, 106.001 224.338, 106.002 224.750 M 151 227.353 C 151 229.198, 150.711 233.473, 150.358 236.853 C 149.750 242.669, 149.830 243, 151.858 243 C 153.835 243, 154 242.482, 154 236.288 L 154 229.576 156.987 233.038 L 159.975 236.500 162.439 233.750 C 163.795 232.238, 165.151 231, 165.452 231 C 165.753 231, 166 233.700, 166 237 C 166 241.382, 166.365 243, 167.355 243 C 168.634 243, 169.972 234.757, 169.993 226.750 C 170.003 222.886, 166.784 223.116, 162.986 227.250 L 160 230.500 157.014 227.250 C 153.071 222.958, 151 222.993, 151 227.353 M 176 233.500 L 176 243 182.500 243 C 187.611 243, 189 242.679, 189 241.500 C 189 240.389, 187.833 240, 184.500 240 C 180.367 240, 180 239.796, 180 237.500 C 180 235.250, 180.400 235, 184 235 C 186.889 235, 188 234.583, 188 233.500 C 188 232.417, 186.889 232, 184 232 C 180.400 232, 180 231.750, 180 229.500 C 180 227.250, 180.400 227, 184 227 C 186.889 227, 188 226.583, 188 225.500 C 188 224.333, 186.667 224, 182 224 L 176 224 176 233.500 M 194 224.618 C 194 224.958, 195.350 226.774, 197 228.653 C 198.650 230.532, 200 232.423, 200 232.855 C 200 233.287, 198.425 235.480, 196.500 237.729 C 192.382 242.540, 192.274 242.997, 195.250 243.009 C 196.564 243.014, 198.651 241.663, 200.268 239.759 L 203.036 236.500 205.841 239.750 C 207.405 241.563, 209.609 243, 210.823 243 C 213.741 243, 213.601 242.440, 209.406 237.320 L 205.813 232.935 209.473 228.467 C 212.938 224.239, 213.013 224, 210.872 224 C 209.627 224, 207.313 225.238, 205.728 226.750 L 202.846 229.500 200.471 226.750 C 198.393 224.344, 194 222.897, 194 224.618 M 218 233.500 C 218 242.333, 218.140 243, 220 243 C 221.860 243, 222 242.333, 222 233.500 C 222 224.667, 221.860 224, 220 224 C 218.140 224, 218 224.667, 218 233.500 M 303 225.500 C 303 226.548, 304.056 227, 306.500 227 L 310 227 310 235 C 310 242.333, 310.167 243, 312 243 C 313.833 243, 314 242.333, 314 235 L 314 227 317.500 227 C 319.944 227, 321 226.548, 321 225.500 C 321 224.278, 319.333 224, 312 224 C 304.667 224, 303 224.278, 303 225.500 M 325.672 232.978 C 323.652 237.915, 322 242.190, 322 242.478 C 322 242.765, 322.911 243, 324.025 243 C 325.264 243, 326.418 242.031, 327 240.500 C 327.788 238.429, 328.613 238, 331.815 238 C 334.966 238, 335.889 238.461, 336.818 240.500 C 337.978 243.046, 342.723 244.259, 341.709 241.750 C 341.431 241.063, 339.518 236.787, 337.458 232.250 C 334.429 225.577, 333.296 224, 331.528 224 C 329.717 224, 328.716 225.534, 325.672 232.978 M 343 225.500 C 343 226.548, 344.056 227, 346.500 227 L 350 227 350 235 C 350 242.333, 350.167 243, 352 243 C 353.833 243, 354 242.333, 354 235 L 354 227 357 227 C 359 227, 360 226.500, 360 225.500 C 360 224.284, 358.389 224, 351.500 224 C 344.611 224, 343 224.284, 343 225.500 M 366 233.500 L 366 243 372 243 C 376.667 243, 378 242.667, 378 241.500 C 378 240.389, 376.833 240, 373.500 240 C 369.367 240, 369 239.796, 369 237.500 C 369 235.198, 369.362 235, 373.573 235 C 377.394 235, 378.090 234.712, 377.800 233.250 C 377.540 231.935, 376.466 231.500, 373.477 231.500 C 370.114 231.500, 369.451 231.153, 369.180 229.250 C 368.889 227.198, 369.264 227, 373.430 227 C 376.826 227, 378 226.614, 378 225.500 C 378 224.333, 376.667 224, 372 224 L 366 224 366 233.500 M 412 233.500 L 412 243 418 243 C 422.667 243, 424 242.667, 424 241.500 C 424 240.417, 422.889 240, 420 240 C 416.400 240, 416 239.750, 416 237.500 C 416 235.250, 416.400 235, 420 235 C 423.341 235, 424 234.669, 424 232.988 C 424 231.201, 423.553 231.048, 420 231.616 C 416.186 232.226, 416 232.134, 416 229.628 C 416 227.229, 416.348 227, 420 227 C 422.889 227, 424 226.583, 424 225.500 C 424 224.333, 422.667 224, 418 224 L 412 224 412 233.500 M 430 233.500 C 430 242.333, 430.140 243, 432 243 C 433.797 243, 434 242.333, 434 236.420 L 434 229.840 439.617 236.420 C 442.706 240.039, 445.856 243, 446.617 243 C 447.697 243, 448 240.920, 448 233.500 C 448 224.691, 447.856 224, 446.015 224 C 444.189 224, 444.074 224.498, 444.580 230.250 L 445.129 236.500 439.314 230.243 C 431.012 221.309, 430 221.663, 430 233.500 M 457.133 232.213 C 455.281 236.771, 453.545 241.063, 453.276 241.750 C 452.295 244.252, 457.021 243.047, 458.182 240.500 C 459.097 238.493, 460.046 238, 463 238 C 465.954 238, 466.903 238.493, 467.818 240.500 C 468.486 241.967, 469.793 243, 470.979 243 C 473.563 243, 473.574 243.060, 469.080 233 C 465.988 226.078, 464.839 224.447, 462.892 224.213 C 460.758 223.957, 460.137 224.820, 457.133 232.213 M 474 225.500 C 474 226.548, 475.056 227, 477.500 227 L 481 227 481 235 C 481 242.333, 481.167 243, 483 243 C 484.833 243, 485 242.333, 485 235 L 485 227 488 227 C 490 227, 491 226.500, 491 225.500 C 491 224.284, 489.389 224, 482.500 224 C 475.611 224, 474 224.284, 474 225.500 M 497 233.500 L 497 243 503 243 C 507.667 243, 509 242.667, 509 241.500 C 509 240.417, 507.889 240, 505 240 C 501.400 240, 501 239.750, 501 237.500 C 501 235.250, 501.400 235, 505 235 C 508.333 235, 509 234.667, 509 233 C 509 231.333, 508.333 231, 505 231 C 501.667 231, 501 230.667, 501 229 C 501 227.333, 501.667 227, 505 227 C 507.889 227, 509 226.583, 509 225.500 C 509 224.333, 507.667 224, 503 224 L 497 224 497 233.500 M 257 229 C 252.190 233.810, 257.100 241.433, 263.452 239.018 C 268.435 237.124, 268.788 230.562, 264.043 228.023 C 261.195 226.499, 259.228 226.772, 257 229 M 330.304 232.005 C 329.243 234.817, 329.321 235, 331.587 235 C 334.305 235, 334.463 234.460, 332.682 231.255 L 331.435 229.010 330.304 232.005 M 461.607 231.582 C 460.584 234.249, 460.913 235, 463.107 235 C 464.617 235, 465.042 234.552, 464.607 233.418 C 464.273 232.548, 464 231.423, 464 230.918 C 464 229.401, 462.259 229.884, 461.607 231.582" stroke="none" fill="#bf1e2d" fill-rule="evenodd"/><path d="M 241.319 0.750 C 241.559 1.163, 251.260 17.077, 262.878 36.114 C 274.495 55.152, 283.998 71.127, 283.995 71.614 C 283.992 72.102, 282.940 73.812, 281.658 75.415 L 279.325 78.330 273.834 69.415 C 270.813 64.512, 261.221 48.800, 252.517 34.500 C 243.813 20.200, 235.782 7.488, 234.671 6.250 C 230.693 1.819, 223 4.709, 223 10.635 C 223 12.275, 228.894 22.939, 238.613 38.885 C 257.735 70.258, 257.779 70.317, 262.967 71.872 C 269.664 73.878, 271.107 76.002, 271.074 83.801 C 271.059 87.486, 271.148 91.806, 271.273 93.402 C 271.490 96.179, 270.390 96.983, 245.500 112.220 C 231.200 120.973, 219.092 128.536, 218.592 129.025 C 217.272 130.319, 219.220 132.258, 225.003 135.405 L 230.040 138.147 249.770 126.134 C 270.707 113.386, 270.745 113.375, 270.930 120.039 C 270.991 122.255, 269.224 123.660, 257.093 131.039 C 249.444 135.693, 243.293 139.611, 243.424 139.747 C 244.295 140.655, 256.757 137.237, 262.891 134.408 C 266.956 132.534, 270.387 131, 270.516 131 C 270.645 131, 271.025 132.376, 271.361 134.057 C 271.869 136.597, 272.265 136.951, 273.702 136.147 C 275.086 135.372, 275.810 135.803, 277.336 138.312 C 279.142 141.282, 279.150 141.499, 277.487 142.473 C 276.522 143.038, 274.555 144.441, 273.116 145.591 C 271.677 146.741, 268.250 148.935, 265.500 150.467 C 253.209 157.315, 235.005 168.575, 235.003 169.332 C 235.001 169.789, 240.512 170.003, 247.250 169.808 L 259.500 169.453 272 161.629 C 288.766 151.135, 287.362 151.710, 290.393 154.095 C 291.827 155.222, 293 156.513, 293 156.963 C 293 157.412, 288.963 160.192, 284.028 163.140 C 279.094 166.088, 275.044 168.838, 275.028 169.250 C 275.013 169.662, 280.324 170, 286.831 170 C 297.508 170, 299.140 169.754, 303.581 167.479 C 309.214 164.592, 314.624 164.822, 317.566 168.073 C 318.986 169.643, 320.673 170, 326.655 170 C 332.213 170, 334 169.666, 334 168.628 C 334 167.793, 335.618 166.997, 338.133 166.595 C 341.600 166.040, 342.495 166.261, 343.689 167.967 C 344.889 169.679, 346.209 170, 352.057 170 C 355.876 170, 359 169.576, 359 169.057 C 359 168.539, 358.044 166.494, 356.876 164.514 C 355.708 162.535, 354.920 160.798, 355.126 160.655 C 355.332 160.512, 356.675 159.662, 358.110 158.766 L 360.720 157.137 364.820 163.569 L 368.921 170 375.960 170 C 379.878 170, 383 169.567, 383 169.023 C 383 168.485, 380.261 163.569, 376.914 158.099 L 370.828 148.152 373.073 145.115 C 374.308 143.445, 375.657 142.288, 376.071 142.544 C 376.484 142.799, 380.310 148.744, 384.572 155.754 C 388.833 162.764, 392.811 168.831, 393.410 169.235 C 394.724 170.120, 409 170.259, 409 169.386 C 409 169.048, 406.928 165.448, 404.396 161.386 C 400.265 154.757, 399.471 153.999, 396.646 153.986 C 389.293 153.954, 389 153.599, 389 144.714 C 389 137.608, 388.646 136.035, 385.989 131.326 C 382.340 124.861, 382.589 119.093, 386.610 116.941 C 388.837 115.749, 389 115.092, 389 107.323 C 389 99.298, 388.926 99.029, 387.045 100.204 C 384.654 101.697, 384.350 101.421, 383.526 97 C 382.938 93.847, 383.177 93.321, 385.937 91.693 C 388.918 89.935, 389 89.688, 389 82.443 C 389 78.350, 388.782 75, 388.515 75 C 388.248 75, 385.707 76.430, 382.867 78.177 L 377.705 81.353 375.819 79.025 C 374.783 77.745, 374.079 76.264, 374.255 75.735 C 374.431 75.206, 401.774 58.147, 435.017 37.825 C 468.259 17.502, 495.655 0.678, 495.896 0.438 C 496.136 0.197, 490.727 -0, 483.875 -0 L 471.416 0 418.200 32.565 C 382.426 54.456, 364.413 64.939, 363.242 64.548 C 362.284 64.229, 360.505 63.187, 359.289 62.233 C 357.106 60.522, 357.704 60.117, 406.211 30.500 L 455.345 0.500 442.290 0.222 L 429.236 -0.056 384.966 27.021 C 360.618 41.913, 340.158 53.891, 339.500 53.638 C 338.841 53.386, 330.999 41.214, 322.073 26.589 L 305.844 0 297.922 0 C 293.565 0, 290 0.255, 290 0.567 C 290 0.878, 297.023 12.605, 305.607 26.627 C 314.190 40.648, 320.996 52.337, 320.731 52.603 C 320.465 52.868, 318.703 53.336, 316.814 53.643 L 313.380 54.200 296.940 27.135 L 280.500 0.071 272.691 0.035 C 268.396 0.016, 265.070 0.338, 265.299 0.750 C 265.528 1.163, 273.430 14.147, 282.858 29.605 C 292.286 45.062, 300 58.213, 300 58.829 C 300 59.445, 298.762 60.578, 297.250 61.346 L 294.500 62.744 275.500 31.406 L 256.500 0.069 248.691 0.034 C 244.396 0.015, 241.078 0.337, 241.319 0.750 M 454.545 34.279 C 406.671 63.558, 399.033 68.544, 401.659 68.803 C 404.869 69.120, 407 72.053, 407 76.154 C 407 77.651, 407.447 78.042, 408.638 77.585 C 410.909 76.714, 519.741 10.264, 523.750 7.300 C 525.878 5.727, 527 4.053, 527 2.449 C 527 0.046, 526.845 0.001, 518.750 0.029 L 510.500 0.057 454.545 34.279 M 459.500 55.886 L 407.500 87.722 407.209 95.908 L 406.918 104.094 409.709 102.641 C 411.244 101.842, 422.400 95.124, 434.500 87.711 C 453.266 76.215, 456.547 73.850, 456.816 71.617 C 457.098 69.290, 457.570 69, 461.075 69 C 464.401 69, 469.049 66.550, 490.759 53.355 C 504.917 44.750, 517.513 36.797, 518.750 35.681 C 523.421 31.468, 520.637 23.972, 514.421 24.025 C 512.369 24.042, 496.031 33.520, 459.500 55.886 M 314.500 69.329 C 287.710 76.183, 273.949 104.549, 285.341 129.434 C 294.093 148.551, 319.802 159.348, 342.540 153.455 C 349.865 151.557, 360.659 145.292, 364.873 140.492 C 366.601 138.524, 369.470 134.120, 371.249 130.707 C 374.367 124.721, 374.483 124.072, 374.491 112.500 C 374.499 101.230, 374.326 100.165, 371.635 95 C 365.181 82.610, 357.417 75.301, 345.977 70.849 C 339.185 68.205, 322.113 67.381, 314.500 69.329 M 321.186 84.519 C 308.123 88.139, 300.023 98.534, 300.006 111.701 C 299.983 128.884, 310.581 139.367, 328 139.391 C 339.973 139.407, 348.684 134.409, 353.745 124.620 C 357.272 117.796, 357.579 105.876, 354.403 98.989 C 348.785 86.802, 334.851 80.732, 321.186 84.519 M 190.500 145.938 C 184.450 149.725, 173.794 156.230, 166.821 160.393 C 159.847 164.556, 153.858 168.421, 153.512 168.981 C 153.097 169.652, 157.135 170, 165.338 170 L 177.794 170 194.147 159.999 C 203.141 154.499, 211.175 149.538, 212 148.975 C 213.271 148.108, 213.119 147.690, 211 146.238 C 209.625 145.296, 207.307 143.282, 205.849 141.763 C 204.391 140.243, 202.816 139.011, 202.349 139.025 C 201.882 139.040, 196.550 142.150, 190.500 145.938 M 220.613 153.526 C 215.881 155.981, 197.464 167.359, 196 168.733 C 194.707 169.946, 196.231 170.096, 207.068 169.820 L 219.636 169.500 228.568 164.068 C 233.481 161.081, 238.573 157.818, 239.885 156.818 L 242.270 155 237.853 155 C 235.423 155, 231.086 154.390, 228.214 153.646 C 224.032 152.561, 222.519 152.537, 220.613 153.526 M 78 214.632 C 73.875 217.150, 69.576 220.058, 68.447 221.094 L 66.395 222.978 70.923 227.940 C 75.147 232.568, 75.571 232.794, 77.226 231.296 C 78.202 230.413, 79 228.410, 79 226.845 C 79 224.983, 79.518 224, 80.500 224 C 81.359 224, 82 224.901, 82 226.107 C 82 228.826, 81.922 228.861, 98.518 218.615 L 112.471 210 98.985 210.027 L 85.500 210.054 78 214.632 M 110.788 220.299 C 101.596 225.909, 94.059 230.838, 94.038 231.250 C 94.017 231.662, 95.575 232, 97.500 232 C 99.944 232, 101 232.452, 101 233.500 C 101 234.583, 99.889 235, 97 235 C 93.445 235, 93 235.267, 93 237.399 C 93 239.533, 93.526 239.847, 97.750 240.240 C 101.251 240.565, 103.486 240.148, 106.250 238.656 C 108.313 237.543, 110 236.302, 110 235.899 C 110 235.496, 109.100 233.066, 108 230.500 C 105.543 224.767, 105.519 224, 107.802 224 C 109.059 224, 110.149 225.514, 111.403 229 C 112.392 231.750, 113.560 234, 114 234 C 114.440 234, 115.608 231.750, 116.597 229 C 118.538 223.603, 120.717 222.566, 123.128 225.894 C 124.430 227.690, 125.240 227.332, 138.956 218.894 L 153.413 210 140.456 210.049 L 127.500 210.098 110.788 220.299 M 149.421 220.736 L 132.342 231.312 130.020 237.156 C 128.744 240.370, 127.371 243, 126.971 243 C 126.570 243, 125.683 241.650, 125 240 C 124.317 238.350, 123.540 237, 123.274 237 C 123.008 237, 120.790 238.350, 118.345 240 C 115.900 241.650, 113.720 243, 113.499 243 C 112.582 243, 76.315 265.486, 74.250 267.334 C 71.618 269.690, 71.374 272.662, 73.557 275.777 C 76.755 280.344, 79.377 279.194, 114.418 257.849 C 132.613 246.767, 148.287 237.022, 149.250 236.194 C 150.511 235.111, 151 233.196, 151 229.345 C 151 222.908, 152.534 222.374, 157.014 227.250 L 160 230.500 162.986 227.250 C 164.628 225.463, 166.826 224, 167.871 224 C 169.307 224, 189.494 212.562, 191.917 210.376 C 192.146 210.169, 186.521 210.036, 179.417 210.080 L 166.500 210.161 149.421 220.736 M 196 217 C 189.692 220.850, 185.311 224, 186.265 224 C 187.219 224, 188 224.675, 188 225.500 C 188 226.583, 186.889 227, 184 227 C 180.400 227, 180 227.250, 180 229.500 C 180 231.750, 180.400 232, 184 232 C 186.889 232, 188 232.417, 188 233.500 C 188 234.583, 186.889 235, 184 235 C 180.400 235, 180 235.250, 180 237.500 C 180 239.519, 180.495 240, 182.575 240 C 185.115 240, 199 232.443, 199 231.060 C 199 230.669, 197.875 229.292, 196.500 228 C 195.125 226.708, 194 225.280, 194 224.826 C 194 222.932, 198.271 224.202, 200.471 226.750 L 202.846 229.500 205.728 226.750 C 207.313 225.238, 209.260 223.995, 210.055 223.989 C 210.850 223.983, 216.663 220.833, 222.972 216.989 L 234.445 210 220.957 210 L 207.470 210 196 217 M 344 210.567 C 344 210.879, 345.688 214.021, 347.750 217.548 C 351.423 223.830, 351.588 223.962, 355.750 223.981 C 360.850 224.004, 361.875 226.679, 356.978 227.187 L 353.956 227.500 371.790 256.671 C 381.599 272.715, 390.214 286.553, 390.935 287.421 C 392.985 289.892, 399.543 289.491, 401.443 286.777 C 402.299 285.555, 403 283.709, 403 282.675 C 403 280.340, 378.701 240.398, 378.198 241.907 C 377.989 242.534, 375.309 243, 371.917 243 L 366 243 366 233.583 C 366 228.279, 366.431 224.021, 366.987 223.833 C 367.530 223.650, 366.124 220.463, 363.861 216.750 L 359.748 210 351.874 210 C 347.543 210, 344 210.255, 344 210.567 M 376.589 222.250 C 380.718 228.988, 391.576 246.762, 400.717 261.750 L 417.337 289 424.169 289 C 429.752 289, 431 288.709, 431 287.407 C 431 286.530, 425.038 276.002, 417.750 264.010 C 405.071 243.147, 404.383 242.229, 401.787 242.721 C 397.653 243.504, 394 242.260, 394 240.068 C 394 238.380, 394.326 238.297, 396.986 239.301 C 399.308 240.177, 400.253 240.139, 401.236 239.127 C 402.260 238.074, 402.051 237.511, 400.140 236.163 C 394.825 232.418, 392.868 229.992, 393.515 227.953 C 393.955 226.565, 392.701 223.461, 389.482 217.969 L 384.810 210 376.946 210 L 369.082 210 376.589 222.250 M 397.266 216.929 C 399.595 220.740, 402.347 224.088, 403.382 224.370 C 404.623 224.707, 405.100 225.509, 404.783 226.724 C 404.501 227.799, 405.894 231.047, 408.131 234.533 L 411.960 240.500 411.980 232.316 C 411.999 224.424, 412.086 224.122, 414.415 223.816 L 416.831 223.500 412.797 216.750 L 408.764 210 400.898 210 L 393.033 210 397.266 216.929 M 418.271 210.708 C 418.514 211.144, 421.139 215.517, 424.106 220.427 C 428.806 228.205, 429.541 229.009, 429.816 226.677 C 430.320 222.417, 432.969 223.413, 439.303 230.243 L 445.106 236.500 444.721 231.500 C 444.422 227.622, 443.211 224.705, 439.320 218.500 L 434.305 210.500 426.067 210.208 C 421.537 210.048, 418.029 210.273, 418.271 210.708 M 369.154 228.970 C 369.344 230.275, 370.063 231.529, 370.750 231.755 C 372.549 232.348, 372.291 229.486, 370.404 227.920 C 369.010 226.764, 368.852 226.897, 369.154 228.970 M 416 229.500 C 416 231.500, 416.500 232, 418.500 232 C 421.163 232, 421.784 230.184, 419.800 228.200 C 417.816 226.216, 416 226.837, 416 229.500 M 171.635 232.073 C 169.497 233.754, 169 234.981, 169 238.573 C 169 241.841, 168.607 243, 167.500 243 C 166.452 243, 166 241.944, 166 239.500 C 166 237.575, 165.754 236, 165.453 236 C 164.217 236, 103.323 273.643, 101.250 275.689 C 98.430 278.471, 98.401 280.968, 101.145 284.458 C 102.836 286.607, 103.948 287.104, 106.395 286.803 C 110.476 286.301, 180.400 243.618, 177.858 243.180 C 176.273 242.908, 176 241.915, 176 236.430 C 176 232.894, 175.611 230, 175.135 230 C 174.659 230, 173.084 230.933, 171.635 232.073 M 434 233.126 C 434 237.532, 444.206 254.748, 447.579 256.030 C 454.543 258.678, 459.979 249.406, 454.748 243.802 C 454.062 243.066, 452.375 240.309, 451 237.675 L 448.500 232.885 448.198 237.943 C 447.995 241.334, 447.457 243, 446.565 243 C 445.833 243, 442.706 240.039, 439.617 236.420 L 434 229.840 434 233.126 M 85.250 236.132 C 83.059 237.524, 82 238.979, 82 240.598 C 82 243.102, 80.169 243.769, 78.334 241.934 C 76.709 240.309, 63.196 248.787, 62.290 252 C 60.961 256.713, 63.498 261, 67.615 261 C 68.883 261, 76.555 256.950, 84.665 252 L 99.409 243 94.259 243 L 89.110 243 88.805 238.533 L 88.500 234.067 85.250 236.132 M 369 237.437 C 369 239.818, 369.328 240, 373.622 240 C 378.189 240, 378.226 239.973, 376.758 237.750 C 375.857 236.385, 374.039 235.377, 372.137 235.187 C 369.355 234.909, 369 235.164, 369 237.437 M 416 237.500 C 416 239.750, 416.400 240, 420 240 C 422.889 240, 424 240.417, 424 241.500 C 424 242.633, 422.778 243, 419 243 C 416.250 243, 414 243.280, 414 243.623 C 414 245.324, 437.420 282.154, 439.059 283.032 C 443.270 285.285, 448 281.980, 448 276.784 C 448 275.493, 442.570 265.564, 435.932 254.719 L 423.865 235 419.932 235 C 416.405 235, 416 235.257, 416 237.500" stroke="none" fill="#f4d434" fill-rule="evenodd"/><path d="M 0 144.500 L 0 289 195.943 289 L 391.885 289 388.693 284.108 C 386.937 281.417, 378.525 267.762, 370 253.765 L 354.500 228.314 354.208 235.657 C 353.948 242.181, 353.698 243, 351.958 243 C 350.177 243, 350 242.276, 350 235 L 350 227 346.500 227 C 344.056 227, 343 226.548, 343 225.500 C 343 224.417, 344.111 224, 347 224 C 349.200 224, 351 223.721, 351 223.381 C 351 223.040, 349.425 220.169, 347.500 217 C 345.575 213.831, 344 210.960, 344 210.619 C 344 210.279, 347.548 210, 351.885 210 L 359.771 210 364 217 C 368.205 223.960, 368.255 224, 372.615 224 C 375.027 224, 377 223.711, 377 223.358 C 377 223.005, 375.193 219.855, 372.985 216.358 L 368.969 210 376.897 210 L 384.825 210 389.163 217.488 C 391.548 221.606, 393.950 224.961, 394.500 224.943 C 395.050 224.925, 396.724 224.368, 398.220 223.705 L 400.939 222.500 396.945 216.250 L 392.951 210 400.862 210 L 408.772 210 412.931 217 C 416.800 223.514, 417.329 224, 420.545 224 C 422.949 224, 424 224.456, 424 225.500 C 424 226.435, 423.055 227, 421.492 227 C 419.233 227, 419.108 227.200, 420.232 229 C 420.919 230.100, 422.048 231, 422.741 231 C 423.433 231, 424 231.950, 424 233.111 C 424 234.272, 429.400 244.045, 436 254.829 C 442.600 265.614, 448 275.493, 448 276.784 C 448 281.980, 443.270 285.285, 439.059 283.032 C 438.015 282.473, 431.858 273.349, 425.379 262.758 C 418.900 252.166, 413.239 243.350, 412.799 243.167 C 412.360 242.983, 411.998 242.308, 411.996 241.667 C 411.993 241.025, 410.078 237.575, 407.739 234 C 404.444 228.963, 402.869 227.429, 400.744 227.184 C 396.839 226.733, 397.158 229.517, 401.250 231.614 C 405.621 233.854, 406.166 234.843, 405.507 239.352 C 404.983 242.936, 405.854 244.692, 417.972 264.492 C 425.137 276.199, 431 286.503, 431 287.389 C 431 288.855, 437.457 289, 502.918 289 C 542.473 289, 575.548 288.727, 576.418 288.393 C 577.850 287.843, 578 274.182, 578 143.893 L 578 0 552.500 0 L 527 0 527 2.449 C 527 4.053, 525.878 5.727, 523.750 7.300 C 521.962 8.621, 495.525 24.905, 465 43.485 C 434.475 62.065, 408.487 77.893, 407.250 78.657 C 405.459 79.763, 405 80.959, 405 84.523 C 405 86.985, 405.256 89, 405.570 89 C 405.883 89, 408.021 87.727, 410.320 86.171 C 412.619 84.615, 436.373 69.990, 463.107 53.671 C 498.209 32.244, 512.545 24, 514.702 24 C 520.656 24, 523.284 31.587, 518.750 35.685 C 517.513 36.804, 505.089 44.644, 491.143 53.109 L 465.785 68.500 488.393 68.769 L 511 69.038 511 75.519 L 511 82 492 82 L 473 82 473 93 L 473 104 491 104 L 509 104 509 110.500 L 509 117 491 117 L 473 117 473 128.500 L 473 140 492.500 140 L 512 140 512 146.500 L 512 153 484.511 153 L 457.023 153 456.761 113.608 L 456.500 74.217 434.500 87.705 C 422.400 95.123, 410.813 102.058, 408.750 103.117 L 405 105.041 405 122.520 L 405 140 425.500 140 L 446 140 446 146.500 L 446 153 422.507 153 L 399.013 153 403.595 160.147 C 410.260 170.546, 410.356 170.002, 401.857 169.985 C 397.811 169.976, 394.010 169.639, 393.410 169.235 C 392.811 168.831, 388.833 162.764, 384.572 155.754 C 380.310 148.744, 376.484 142.799, 376.071 142.544 C 375.657 142.288, 374.308 143.445, 373.073 145.115 L 370.828 148.152 376.914 158.099 C 380.261 163.569, 383 168.485, 383 169.023 C 383 169.567, 379.878 170, 375.960 170 L 368.921 170 364.820 163.569 L 360.720 157.137 358.110 158.766 C 356.675 159.662, 355.332 160.512, 355.126 160.655 C 354.920 160.798, 355.708 162.535, 356.876 164.514 C 358.044 166.494, 359 168.539, 359 169.057 C 359 169.576, 355.876 170, 352.057 170 C 346.209 170, 344.889 169.679, 343.689 167.967 C 342.495 166.261, 341.600 166.040, 338.133 166.595 C 335.618 166.997, 334 167.793, 334 168.628 C 334 169.666, 332.213 170, 326.655 170 C 320.673 170, 318.986 169.643, 317.566 168.073 C 314.624 164.822, 309.214 164.592, 303.581 167.479 C 299.140 169.754, 297.508 170, 286.831 170 C 280.324 170, 275.013 169.662, 275.028 169.250 C 275.044 168.838, 279.094 166.088, 284.028 163.140 C 288.963 160.192, 293 157.412, 293 156.963 C 293 156.513, 291.827 155.222, 290.393 154.095 C 287.362 151.710, 288.766 151.135, 272 161.629 L 259.500 169.453 247.250 169.808 C 240.512 170.003, 235.001 169.789, 235.003 169.332 C 235.005 168.575, 253.209 157.315, 265.500 150.467 C 268.250 148.935, 271.677 146.741, 273.116 145.591 C 274.555 144.441, 276.509 143.046, 277.458 142.491 C 279.087 141.538, 279.084 141.308, 277.389 138.355 C 275.811 135.605, 275.317 135.354, 273.297 136.274 C 271.409 137.135, 271 138.102, 271 141.713 L 271 146.105 264.750 149.021 C 261.313 150.624, 255.125 152.480, 251 153.146 C 246.593 153.856, 242.263 155.235, 240.500 156.489 C 238.850 157.663, 233.481 161.070, 228.568 164.062 L 219.636 169.500 207.068 169.820 C 196.231 170.096, 194.707 169.946, 196 168.733 C 197.482 167.343, 215.904 155.969, 220.717 153.472 L 223.202 152.183 218.499 150.103 L 213.797 148.022 198.648 157.359 C 176.864 170.785, 178.953 170, 164.991 170 C 157.023 170, 153.097 169.652, 153.512 168.981 C 153.858 168.421, 159.847 164.552, 166.821 160.385 C 173.794 156.217, 184.736 149.567, 191.136 145.608 C 202.190 138.769, 202.697 138.311, 201.272 136.455 C 198.203 132.456, 194.820 123.794, 193.964 117.743 C 190.728 94.878, 205.033 74.483, 227.881 69.387 C 235.235 67.747, 250.123 67.856, 255.906 69.593 C 258.309 70.314, 258.308 70.307, 255.340 65.908 C 245.230 50.921, 223 12.931, 223 10.640 C 223 4.709, 230.691 1.816, 234.671 6.250 C 235.782 7.487, 243.813 20.200, 252.517 34.500 C 261.221 48.800, 270.813 64.512, 273.834 69.415 L 279.325 78.330 281.658 75.415 C 282.940 73.812, 283.992 72.104, 283.995 71.620 C 283.998 71.136, 274.280 54.824, 262.400 35.370 L 240.799 -0 120.400 -0 L 0 0 0 144.500 M 257.276 1.250 C 257.546 1.938, 266.059 16.057, 276.194 32.627 L 294.620 62.755 297.310 61.345 C 298.790 60.570, 300 59.440, 300 58.833 C 300 58.227, 292.065 44.741, 282.366 28.865 L 264.732 0 260.759 0 C 257.986 0, 256.934 0.377, 257.276 1.250 M 281 0.602 C 281 0.934, 288.289 13.128, 297.198 27.701 L 313.396 54.197 316.822 53.642 C 318.706 53.336, 320.463 52.871, 320.726 52.608 C 320.988 52.345, 314.070 40.413, 305.352 26.093 L 289.500 0.056 285.250 0.028 C 282.913 0.013, 281 0.271, 281 0.602 M 307.208 2.250 C 307.999 3.488, 315.321 15.453, 323.479 28.841 C 331.637 42.229, 338.847 53.388, 339.503 53.639 C 340.483 54.015, 424.369 3.680, 427.450 0.867 C 427.987 0.377, 401.770 0, 367.085 0 L 305.770 0 307.208 2.250 M 406.292 30.330 C 357.719 60.111, 357.112 60.522, 359.292 62.233 C 360.506 63.187, 362.286 64.229, 363.246 64.550 C 364.421 64.942, 381.259 55.179, 414.746 34.689 C 442.111 17.946, 466.075 3.293, 468 2.127 L 471.500 0.007 463.500 0.084 L 455.500 0.161 406.292 30.330 M 435.538 37.437 C 402.008 57.973, 374.431 75.207, 374.255 75.736 C 374.078 76.265, 374.775 77.735, 375.802 79.004 L 377.669 81.310 383.335 77.921 C 388.040 75.107, 389 74.064, 389 71.766 C 389 69.162, 389.258 69, 393.422 69 C 397.475 69, 402.516 66.146, 453.672 34.888 C 484.378 16.126, 509.688 0.601, 509.917 0.388 C 510.146 0.174, 507.221 0.022, 503.417 0.050 L 496.500 0.100 435.538 37.437 M 0.487 145 C 0.487 224.475, 0.605 256.988, 0.750 217.250 C 0.895 177.513, 0.895 112.488, 0.750 72.750 C 0.605 33.013, 0.487 65.525, 0.487 145 M 63 111 L 63 153 71.485 153 L 79.970 153 80.235 124.105 L 80.500 95.209 104.831 124.105 L 129.161 153 136.581 153 L 144 153 144 111 L 144 69 135.515 69 L 127.031 69 126.765 97.413 L 126.500 125.825 102.500 97.485 L 78.500 69.144 70.750 69.072 L 63 69 63 111 M 162 111 L 162 153 170 153 L 178 153 178 111 L 178 69 170 69 L 162 69 162 111 M 234.223 83.062 C 224.420 84.994, 215.647 92.307, 212.326 101.316 C 209.674 108.510, 211.183 120.771, 215.540 127.420 C 217.209 129.967, 217.232 129.971, 219.859 128.123 C 221.311 127.100, 233.075 119.840, 246 111.989 C 258.925 104.138, 270.121 97.141, 270.880 96.442 C 272.630 94.828, 271.557 90, 269.448 90 C 268.615 90, 265.645 88.840, 262.848 87.423 C 257.456 84.691, 246.502 81.973, 241.500 82.127 C 239.850 82.178, 236.575 82.598, 234.223 83.062 M 386 91.641 C 384.625 92.574, 383.358 93.440, 383.186 93.566 C 383.013 93.692, 383.175 95.417, 383.547 97.398 C 384.765 103.891, 389.337 100.980, 388.811 94.047 L 388.500 89.945 386 91.641 M 250.295 125.809 C 239.732 132.234, 231.407 137.784, 231.795 138.143 C 232.183 138.502, 234.750 139.080, 237.500 139.426 C 242.436 140.048, 242.683 139.944, 256.750 131.310 C 269.159 123.694, 270.991 122.237, 270.930 120.032 C 270.745 113.395, 270.671 113.416, 250.295 125.809 M 385.906 117.282 C 385.030 117.952, 384 120.173, 383.617 122.217 C 383.042 125.292, 383.445 126.846, 385.952 131.217 L 388.981 136.500 388.991 126.250 C 388.996 120.612, 388.663 116.014, 388.250 116.032 C 387.837 116.049, 386.783 116.612, 385.906 117.282 M 103 181.500 C 103 183.750, 103.400 184, 107 184 L 111 184 111 192.500 L 111 201 114.500 201 L 118 201 118 192.500 L 118 184 122 184 C 125.600 184, 126 183.750, 126 181.500 L 126 179 114.500 179 L 103 179 103 181.500 M 150.923 181.923 C 145.846 187, 147.260 196.472, 153.540 199.452 C 159.953 202.495, 168.340 200.727, 170.695 195.835 C 172.704 191.660, 172.895 190.205, 171.906 186.620 C 170.417 181.231, 166.870 179, 159.788 179 C 154.554 179, 153.498 179.348, 150.923 181.923 M 198 190 L 198 201 205.365 201 C 216.461 201, 220.784 196.809, 215.982 190.705 C 214.747 189.134, 214.359 187.896, 214.982 187.511 C 215.542 187.165, 216 185.574, 216 183.976 C 216 180.064, 213.661 179, 205.066 179 L 198 179 198 190 M 243 190.063 L 243 201.127 246.250 200.813 L 249.500 200.500 249.784 189.750 L 250.068 179 246.534 179 L 243 179 243 190.063 M 278.651 189.319 C 276.093 195.050, 274 200.022, 274 200.369 C 274 200.716, 275.503 201, 277.339 201 C 279.931 201, 280.934 200.440, 281.818 198.500 C 282.780 196.390, 283.637 196, 287.318 196 C 290.999 196, 291.857 196.390, 292.818 198.500 C 293.667 200.364, 294.726 201, 296.979 201 C 298.640 201, 300 200.623, 300 200.162 C 300 199.701, 297.994 194.864, 295.542 189.412 L 291.084 179.500 287.193 179.200 L 283.302 178.900 278.651 189.319 M 325.612 180.294 C 324.373 181.200, 323.941 182.615, 324.171 185.014 C 324.435 187.762, 325.340 189.002, 328.750 191.286 C 331.087 192.851, 333 194.552, 333 195.066 C 333 196.321, 328.344 196.254, 325.934 194.965 C 324.227 194.051, 324 194.273, 324 196.848 C 324 200.038, 325.739 200.961, 331.795 200.986 C 335.551 201.002, 340 197.287, 340 194.134 C 340 192.021, 335.290 187.544, 331.950 186.484 C 330.817 186.125, 330.071 185.306, 330.293 184.665 C 330.736 183.381, 334.514 183.267, 337.250 184.454 C 338.653 185.063, 339 184.718, 339 182.714 C 339 181.339, 338.288 179.941, 337.418 179.607 C 334.633 178.538, 327.441 178.957, 325.612 180.294 M 365.357 181.577 C 363.085 185.046, 364.455 188.716, 368.910 191.098 C 370.786 192.100, 372.774 193.374, 373.327 193.927 C 374.942 195.542, 371.091 196.473, 367.853 195.250 C 365.139 194.226, 365 194.310, 365 196.970 C 365 200.027, 366.815 200.962, 372.795 200.986 C 376.261 201.001, 381 197.358, 381 194.680 C 381 192.411, 377.320 188.375, 373.996 186.998 C 372.307 186.299, 371.098 185.225, 371.310 184.613 C 371.739 183.373, 375.558 183.286, 378.250 184.454 C 379.653 185.063, 380 184.718, 380 182.714 C 380 179.722, 378.433 179, 371.941 179 C 367.784 179, 366.792 179.389, 365.357 181.577 M 406 190.040 L 406 201.081 414.250 200.790 C 421.942 200.520, 422.522 200.348, 422.820 198.250 C 423.115 196.171, 422.755 196, 418.070 196 C 413.667 196, 413 195.737, 413 194 C 413 192.296, 413.667 192, 417.500 192 C 421.633 192, 422 191.796, 422 189.500 C 422 187.204, 421.633 187, 417.500 187 C 413.667 187, 413 186.704, 413 185 C 413 183.296, 413.667 183, 417.500 183 C 421.333 183, 422 182.704, 422 181 C 422 179.167, 421.333 179, 414 179 L 406 179 406 190.040 M 448 190 L 448 201 451.500 201 L 455 201 455 195.074 L 455 189.148 460.652 195.074 C 464.967 199.598, 466.978 201, 469.152 201 L 472 201 472 190 L 472 179 468.500 179 L 465 179 464.986 184.750 L 464.972 190.500 459.903 184.750 C 455.593 179.861, 454.323 179, 451.417 179 L 448 179 448 190 M 204.332 183.578 C 203.588 185.515, 204.653 188.003, 206.219 187.985 C 208.464 187.958, 210.310 186.251, 209.730 184.740 C 208.932 182.660, 205.008 181.815, 204.332 183.578 M 157.185 184.684 C 156.462 184.973, 155.438 186.348, 154.909 187.740 C 152.682 193.597, 160.847 197.912, 164.443 192.777 C 166.501 189.840, 166.407 188.407, 164 186 C 162.048 184.048, 159.840 183.622, 157.185 184.684 M 285.306 189 C 284.212 191.898, 284.271 192, 287.035 192 C 289.780 192, 289.853 191.878, 288.850 189 C 288.275 187.350, 287.497 186, 287.121 186 C 286.746 186, 285.929 187.350, 285.306 189 M 204.667 191.667 C 204.300 192.033, 204 193.383, 204 194.667 C 204 196.300, 204.575 197, 205.918 197 C 210.843 197, 212.743 194.003, 209.066 192.035 C 206.822 190.834, 205.601 190.732, 204.667 191.667 M 77.886 214.779 C 73.698 217.375, 68.860 220.708, 67.136 222.185 C 64.050 224.828, 64 225.014, 64 233.935 C 64 242.333, 64.147 243, 66 243 C 67.783 243, 68.004 242.321, 68.038 236.750 L 68.077 230.500 72.459 235.474 C 74.869 238.209, 76.658 240.744, 76.434 241.106 C 76.211 241.468, 73.089 243.505, 69.498 245.632 C 63.131 249.404, 61.118 252.144, 61.883 256 C 62.389 258.550, 65.198 261, 67.615 261 C 68.883 261, 76.555 256.950, 84.665 252 C 92.774 247.050, 99.992 243, 100.705 243 C 101.417 243, 102 242.594, 102 242.099 C 102 241.202, 108.459 237, 109.838 237 C 110.236 237, 111.077 238.365, 111.707 240.034 C 113.027 243.531, 115.135 241.855, 91 256.505 C 83.025 261.346, 75.487 266.217, 74.250 267.328 C 71.618 269.691, 71.375 272.662, 73.557 275.777 C 76.795 280.401, 79.408 279.241, 115.500 257.150 L 149.500 236.339 149.810 239.670 C 150.026 241.982, 150.628 243, 151.781 243 C 152.694 243, 143.780 248.886, 131.971 256.081 C 120.162 263.275, 108.146 270.699, 105.270 272.578 C 99.043 276.645, 97.750 279.843, 100.719 283.837 C 104.698 289.191, 105.663 288.776, 144.478 265.020 C 176.572 245.376, 180.916 243, 184.728 243 C 187.761 243, 189 242.586, 189 241.573 C 189 240.789, 188.287 240.001, 187.415 239.823 C 186.480 239.633, 188.552 237.911, 192.460 235.629 C 196.107 233.500, 199.345 232.011, 199.655 232.321 C 200.287 232.954, 196.919 237.993, 194.547 239.961 C 192.351 241.784, 192.631 242.999, 195.250 243.009 C 196.564 243.014, 198.651 241.663, 200.268 239.759 L 203.036 236.500 205.841 239.750 C 207.405 241.563, 209.609 243, 210.823 243 C 213.741 243, 213.601 242.440, 209.406 237.320 L 205.813 232.935 209.368 228.596 C 211.324 226.209, 212.753 224.087, 212.545 223.878 C 212.337 223.670, 217.187 220.463, 223.323 216.750 L 234.479 210 220.974 210 L 207.470 210 196 217 C 186.530 222.780, 183.786 224, 180.265 224 C 176.280 224, 176 224.181, 175.994 226.750 C 175.989 228.766, 175.173 229.963, 172.940 231.235 L 169.892 232.969 170.196 228.235 L 170.500 223.500 181.228 217 L 191.957 210.500 179.506 210.220 C 167.863 209.959, 166.809 210.095, 163.277 212.320 C 143.519 224.764, 132.854 230.841, 133.491 229.290 C 135.291 224.910, 135.250 224, 133.250 224 C 131.809 224, 130.652 225.436, 129.021 229.250 L 126.775 234.500 125.468 231.500 C 124.749 229.850, 124.519 228.128, 124.957 227.673 C 125.395 227.219, 131.983 223.056, 139.596 218.423 L 153.440 210 140.633 210 L 127.827 210 114.749 218.042 C 107.555 222.465, 101.398 225.644, 101.066 225.106 C 100.733 224.568, 98.220 223.987, 95.481 223.814 L 90.500 223.500 101.500 216.756 L 112.500 210.011 99 210.034 L 85.500 210.057 77.886 214.779 M 418.890 211.795 C 419.443 212.827, 422.169 217.338, 424.947 221.819 C 429.667 229.429, 430 230.394, 430 236.482 C 430 242.333, 430.205 243, 432 243 C 433.589 243, 434.001 242.332, 434.004 239.750 C 434.007 236.804, 434.530 237.371, 439.593 245.809 C 445.534 255.709, 448.049 257.692, 452.512 255.995 C 456.068 254.643, 457.694 250.678, 456.256 246.866 C 455.291 244.310, 455.408 243.592, 457.063 241.937 C 458.128 240.872, 459 239.550, 459 239 C 459 238.450, 460.728 238, 462.839 238 C 465.965 238, 466.891 238.465, 467.818 240.500 C 468.486 241.967, 469.793 243, 470.979 243 C 473.563 243, 473.574 243.060, 469.080 233 C 465.991 226.083, 464.838 224.446, 462.891 224.208 C 460.749 223.946, 460.143 224.805, 457.075 232.458 C 455.192 237.156, 453.524 241, 453.368 241 C 453.212 241, 451.940 239.048, 450.542 236.662 C 448.903 233.865, 448 230.821, 448 228.091 C 448 224.162, 447.821 223.880, 445.516 224.178 C 443.396 224.453, 442.396 223.476, 438.681 217.500 L 434.328 210.500 426.107 210.209 C 418.331 209.933, 417.940 210.019, 418.890 211.795 M 235.643 224.053 C 229.234 225.918, 226.447 232.097, 229.422 237.849 C 231.421 241.716, 233.773 243, 238.852 243 C 244.137 243, 246 242.185, 246 239.874 C 246 238.278, 245.545 238.082, 243.250 238.691 C 236.753 240.412, 232.750 238.395, 232.750 233.400 C 232.750 228.177, 238.153 225.858, 244.250 228.466 C 245.604 229.045, 246 228.731, 246 227.076 C 246 225.899, 245.438 224.764, 244.750 224.552 C 241.233 223.469, 238.218 223.303, 235.643 224.053 M 257.524 224.040 C 253.358 225.311, 251.049 228.729, 251.022 233.661 C 250.962 245.022, 268.811 246.569, 271.603 235.445 C 273.457 228.059, 265.493 221.608, 257.524 224.040 M 290.228 224.039 C 285.442 225.962, 286.134 231.680, 291.503 234.572 C 297.097 237.584, 294.688 241.047, 288.750 238.528 C 287.419 237.964, 287 238.265, 287 239.786 C 287 243.439, 295.427 244.395, 298.425 241.082 C 301.106 238.120, 300.014 234.910, 295.237 231.708 C 290.421 228.479, 290.596 226.510, 295.627 227.327 C 299.790 228.002, 300.398 225.482, 296.435 223.975 C 293.438 222.836, 293.219 222.838, 290.228 224.039 M 218 233.500 C 218 242.333, 218.140 243, 220 243 C 221.860 243, 222 242.333, 222 233.500 C 222 224.667, 221.860 224, 220 224 C 218.140 224, 218 224.667, 218 233.500 M 303 225.500 C 303 226.548, 304.056 227, 306.500 227 L 310 227 310 235 C 310 242.333, 310.167 243, 312 243 C 313.833 243, 314 242.333, 314 235 L 314 227 317.500 227 C 319.944 227, 321 226.548, 321 225.500 C 321 224.278, 319.333 224, 312 224 C 304.667 224, 303 224.278, 303 225.500 M 325.672 232.978 C 323.652 237.915, 322 242.190, 322 242.478 C 322 242.765, 322.911 243, 324.025 243 C 325.264 243, 326.418 242.031, 327 240.500 C 327.788 238.429, 328.613 238, 331.815 238 C 334.966 238, 335.889 238.461, 336.818 240.500 C 337.978 243.046, 342.723 244.259, 341.709 241.750 C 341.431 241.063, 339.518 236.787, 337.458 232.250 C 334.429 225.577, 333.296 224, 331.528 224 C 329.717 224, 328.716 225.534, 325.672 232.978 M 474 225.500 C 474 226.548, 475.056 227, 477.500 227 L 481 227 481 235 C 481 242.333, 481.167 243, 483 243 C 484.833 243, 485 242.333, 485 235 L 485 227 488 227 C 490 227, 491 226.500, 491 225.500 C 491 224.284, 489.389 224, 482.500 224 C 475.611 224, 474 224.284, 474 225.500 M 497 233.500 L 497 243 503 243 C 507.667 243, 509 242.667, 509 241.500 C 509 240.417, 507.889 240, 505 240 C 501.400 240, 501 239.750, 501 237.500 C 501 235.250, 501.400 235, 505 235 C 508.333 235, 509 234.667, 509 233 C 509 231.333, 508.333 231, 505 231 C 501.667 231, 501 230.667, 501 229 C 501 227.333, 501.667 227, 505 227 C 507.889 227, 509 226.583, 509 225.500 C 509 224.333, 507.667 224, 503 224 L 497 224 497 233.500 M 84.752 226.841 C 82.361 228.284, 82.003 229.130, 82.002 233.348 L 82 238.196 85.250 236.145 C 88.029 234.392, 88.544 233.436, 88.805 229.547 C 89.137 224.584, 88.831 224.380, 84.752 226.841 M 378.030 225.750 C 378.011 226.537, 376.515 227, 373.992 227 C 370.265 227, 370.069 227.137, 371.203 228.954 C 371.875 230.029, 373.562 231.041, 374.953 231.204 C 377.682 231.523, 379.040 234.614, 376.693 235.166 C 375.711 235.397, 379.542 242.447, 389.100 258 C 396.705 270.375, 402.944 281.412, 402.964 282.527 C 402.984 283.643, 402.299 285.555, 401.443 286.777 L 399.887 289 408.478 289 L 417.070 289 415.867 286.750 C 415.205 285.512, 406.933 271.870, 397.484 256.433 C 388.035 240.995, 379.799 227.495, 379.182 226.433 C 378.565 225.370, 378.047 225.063, 378.030 225.750 M 93 229.026 C 93 230.955, 93.143 230.977, 96 229.500 C 97.650 228.647, 99 227.735, 99 227.474 C 99 227.213, 97.650 227, 96 227 C 93.654 227, 93 227.442, 93 229.026 M 257 229 C 252.190 233.810, 257.100 241.433, 263.452 239.018 C 268.435 237.124, 268.788 230.562, 264.043 228.023 C 261.195 226.499, 259.228 226.772, 257 229 M 330.304 232.005 C 329.243 234.817, 329.321 235, 331.587 235 C 334.305 235, 334.463 234.460, 332.682 231.255 L 331.435 229.010 330.304 232.005 M 117.797 235.864 L 115.240 241.791 118.623 239.795 C 123.044 237.187, 123.230 236.776, 121.672 233.072 L 120.354 229.938 117.797 235.864 M 461.607 231.582 C 460.584 234.249, 460.913 235, 463.107 235 C 464.617 235, 465.042 234.552, 464.607 233.418 C 464.273 232.548, 464 231.423, 464 230.918 C 464 229.401, 462.259 229.884, 461.607 231.582 M 76.446 232.087 C 76.077 232.685, 76.275 233.675, 76.887 234.287 C 77.704 235.104, 78 234.815, 78 233.200 C 78 230.785, 77.481 230.413, 76.446 232.087 M 162.351 233.809 C 160.290 236.382, 160.123 236.421, 158.272 234.746 C 155.112 231.887, 154 232.604, 154 237.500 C 154 239.975, 154.270 242, 154.600 242 C 154.930 242, 157.617 240.537, 160.571 238.750 C 164.479 236.386, 165.951 234.887, 165.972 233.250 C 166.008 230.335, 165.009 230.489, 162.351 233.809" stroke="none" fill="#148a99" fill-rule="evenodd"/></svg>